<svg width="25" height="24" viewBox="0 0 25 24" fill="none" xmlns="http://www.w3.org/2000/svg">
<path fill-rule="evenodd" clip-rule="evenodd" d="M12.5 22C18.023 22 22.5 17.523 22.5 12C22.5 6.477 18.023 2 12.5 2C6.977 2 2.5 6.477 2.5 12C2.5 17.523 6.977 22 12.5 22ZM13.25 9C13.25 8.80109 13.171 8.61032 13.0303 8.46967C12.8897 8.32902 12.6989 8.25 12.5 8.25C12.3011 8.25 12.1103 8.32902 11.9697 8.46967C11.829 8.61032 11.75 8.80109 11.75 9V11.25H9.5C9.30109 11.25 9.11032 11.329 8.96967 11.4697C8.82902 11.6103 8.75 11.8011 8.75 12C8.75 12.1989 8.82902 12.3897 8.96967 12.5303C9.11032 12.671 9.30109 12.75 9.5 12.75H11.75V15C11.75 15.1989 11.829 15.3897 11.9697 15.5303C12.1103 15.671 12.3011 15.75 12.5 15.75C12.6989 15.75 12.8897 15.671 13.0303 15.5303C13.171 15.3897 13.25 15.1989 13.25 15V12.75H15.5C15.6989 12.75 15.8897 12.671 16.0303 12.5303C16.171 12.3897 16.25 12.1989 16.25 12C16.25 11.8011 16.171 11.6103 16.0303 11.4697C15.8897 11.329 15.6989 11.25 15.5 11.25H13.25V9Z" fill="#FAFAFA"/>
</svg>
