<svg width="14" height="14" viewBox="0 0 14 14" fill="none" xmlns="http://www.w3.org/2000/svg">
    <path
        d="M12.25 9.38579V6.47379C12.25 3.97129 12.25 2.72121 11.4812 1.94363C10.7123 1.16663 9.4745 1.16663 7 1.16663C4.52492 1.16663 3.28767 1.16663 2.51883 1.94363C1.75 2.72121 1.75 3.97246 1.75 6.47379V9.38638C1.75 11.1924 1.75 12.096 2.17817 12.4903C2.38233 12.6787 2.64017 12.7971 2.91492 12.8286C3.49067 12.8945 4.16325 12.2995 5.50783 11.1101C6.10283 10.5845 6.39975 10.3215 6.74333 10.2526C6.9125 10.2176 7.0875 10.2176 7.25667 10.2526C7.60083 10.3215 7.89775 10.5845 8.49217 11.1101C9.83675 12.2995 10.5093 12.8945 11.0851 12.828C11.3592 12.7971 11.6177 12.6787 11.8218 12.4903C12.25 12.096 12.25 11.1924 12.25 9.38579Z"
        stroke="#FAFAFA" stroke-width="1.5" />
    <path opacity="0.5" d="M8.75 3.5H5.25" stroke="#FAFAFA" stroke-width="1.5"
        stroke-linecap="round" />
</svg>