<svg width="48" height="49" viewBox="0 0 48 49" fill="none" xmlns="http://www.w3.org/2000/svg">
    <path
        d="M24 32.5C27.3137 32.5 30 29.8137 30 26.5C30 23.1863 27.3137 20.5 24 20.5C20.6863 20.5 18 23.1863 18 26.5C18 29.8137 20.6863 32.5 24 32.5Z"
        stroke="#666666" stroke-width="2" />
    <path
        d="M4 27.228C4 21.098 4 18.034 5.498 15.834C6.14832 14.8773 6.98169 14.0589 7.95 13.426C9.39 12.48 11.194 12.142 13.956 12.022C15.274 12.022 16.408 11.042 16.666 9.772C16.8632 8.84174 17.3755 8.00807 18.1163 7.4119C18.8571 6.81573 19.7811 6.49362 20.732 6.5H27.268C29.244 6.5 30.946 7.87 31.334 9.772C31.592 11.042 32.726 12.022 34.044 12.022C36.804 12.142 38.608 12.482 40.05 13.426C41.02 14.062 41.854 14.88 42.502 15.834C44 18.034 44 21.098 44 27.228C44 33.356 44 36.42 42.502 38.622C41.8505 39.5777 41.0174 40.396 40.05 41.03C37.808 42.5 34.686 42.5 28.444 42.5H19.556C13.314 42.5 10.192 42.5 7.95 41.03C6.98308 40.3952 6.15059 39.5763 5.5 38.62C5.06652 37.9722 4.7466 37.2553 4.554 36.5M38 20.5H36"
        stroke="#666666" stroke-width="2" stroke-linecap="round" />
</svg>
