<svg width="91" height="91" viewBox="0 0 91 91" fill="none" xmlns="http://www.w3.org/2000/svg">
    <mask id="mask0_9_656" style="mask-type:alpha" maskUnits="userSpaceOnUse" x="0" y="0" width="91"
        height="91">
        <rect x="0.00674438" width="90.9865" height="90.9865" fill="#D9D9D9" />
    </mask>
    <g mask="url(#mask0_9_656)">
        <path
            d="M23.1644 56.4779C20.0052 56.4779 17.3198 55.3722 15.1083 53.1607C12.8968 50.9493 11.7911 48.2639 11.7911 45.1046V33.7313C11.7911 32.6572 12.1544 31.7568 12.881 31.0302C13.6077 30.3035 14.5081 29.9402 15.5822 29.9402H61.1702C61.4862 27.8551 62.3392 25.9911 63.7292 24.3483C65.1193 22.7055 66.8253 21.5366 68.8472 20.8416L82.7795 16.1975C83.7905 15.8815 84.7699 15.9447 85.7177 16.387C86.6654 16.8293 87.2973 17.5559 87.6132 18.5669C87.9291 19.5779 87.8501 20.5572 87.3763 21.505C86.9024 22.4528 86.16 23.0846 85.149 23.4006L71.2167 28.0447C70.4585 28.2974 69.8424 28.7555 69.3685 29.4189C68.8946 30.0824 68.6577 30.8248 68.6577 31.6462V45.1046C68.6577 48.2639 67.5519 50.9493 65.3405 53.1607C63.129 55.3722 60.4436 56.4779 57.2844 56.4779H23.1644ZM34.5377 75.4335V67.8513H11.7911C10.717 67.8513 9.81657 67.4879 9.08994 66.7613C8.36331 66.0347 8 65.1343 8 64.0602C8 62.986 8.36331 62.0856 9.08994 61.359C9.81657 60.6324 10.717 60.2691 11.7911 60.2691H34.5377C36.6228 60.2691 38.4078 61.0115 39.8927 62.4963C41.3775 63.9812 42.1199 65.7662 42.1199 67.8513V75.4335C42.1199 76.5076 41.7566 77.408 41.03 78.1346C40.3034 78.8613 39.403 79.2246 38.3288 79.2246C37.2547 79.2246 36.3543 78.8613 35.6277 78.1346C34.901 77.408 34.5377 76.5076 34.5377 75.4335ZM49.7022 75.4335V67.8513C49.7022 65.7662 50.4446 63.9812 51.9294 62.4963C53.4143 61.0115 55.1993 60.2691 57.2844 60.2691H80.031C81.1051 60.2691 82.0055 60.6324 82.7322 61.359C83.4588 62.0856 83.8221 62.986 83.8221 64.0602C83.8221 65.1343 83.4588 66.0347 82.7322 66.7613C82.0055 67.4879 81.1051 67.8513 80.031 67.8513H57.2844V75.4335C57.2844 76.5076 56.9211 77.408 56.1944 78.1346C55.4678 78.8613 54.5674 79.2246 53.4933 79.2246C52.4191 79.2246 51.5187 78.8613 50.7921 78.1346C50.0655 77.408 49.7022 76.5076 49.7022 75.4335Z"
            fill="white" />
    </g>
</svg>
