<svg width="18" height="18" viewBox="0 0 18 18" fill="none" xmlns="http://www.w3.org/2000/svg">
    <mask id="mask0_4973_338" style="mask-type:alpha" maskUnits="userSpaceOnUse" x="0" y="0"
        width="18" height="18">
        <rect width="18" height="18" fill="#D9D9D9" />
    </mask>
    <g mask="url(#mask0_4973_338)">
        <path
            d="M9 16.5C7.9625 16.5 6.9875 16.3031 6.075 15.9094C5.1625 15.5156 4.36875 14.9813 3.69375 14.3063C3.01875 13.6313 2.48438 12.8375 2.09063 11.925C1.69687 11.0125 1.5 10.0375 1.5 9C1.5 7.9625 1.69687 6.9875 2.09063 6.075C2.48438 5.1625 3.01875 4.36875 3.69375 3.69375C4.36875 3.01875 5.1625 2.48438 6.075 2.09063C6.9875 1.69687 7.9625 1.5 9 1.5C10.0375 1.5 11.0125 1.69687 11.925 2.09063C12.8375 2.48438 13.6313 3.01875 14.3063 3.69375C14.9813 4.36875 15.5156 5.1625 15.9094 6.075C16.3031 6.9875 16.5 7.9625 16.5 9V10.0875C16.5 10.825 16.2469 11.4531 15.7406 11.9719C15.2344 12.4906 14.6125 12.75 13.875 12.75C13.4375 12.75 13.025 12.6562 12.6375 12.4688C12.25 12.2812 11.925 12.0125 11.6625 11.6625C11.3 12.025 10.8906 12.2969 10.4344 12.4781C9.97813 12.6594 9.5 12.75 9 12.75C7.9625 12.75 7.07812 12.3844 6.34688 11.6531C5.61562 10.9219 5.25 10.0375 5.25 9C5.25 7.9625 5.61562 7.07812 6.34688 6.34688C7.07812 5.61562 7.9625 5.25 9 5.25C10.0375 5.25 10.9219 5.61562 11.6531 6.34688C12.3844 7.07812 12.75 7.9625 12.75 9V10.0875C12.75 10.4125 12.8562 10.6875 13.0688 10.9125C13.2812 11.1375 13.55 11.25 13.875 11.25C14.2 11.25 14.4688 11.1375 14.6813 10.9125C14.8938 10.6875 15 10.4125 15 10.0875V9C15 7.325 14.4187 5.90625 13.2563 4.74375C12.0938 3.58125 10.675 3 9 3C7.325 3 5.90625 3.58125 4.74375 4.74375C3.58125 5.90625 3 7.325 3 9C3 10.675 3.58125 12.0938 4.74375 13.2563C5.90625 14.4187 7.325 15 9 15H12C12.2125 15 12.3906 15.0719 12.5344 15.2156C12.6781 15.3594 12.75 15.5375 12.75 15.75C12.75 15.9625 12.6781 16.1406 12.5344 16.2844C12.3906 16.4281 12.2125 16.5 12 16.5H9ZM9 11.25C9.625 11.25 10.1562 11.0312 10.5938 10.5938C11.0312 10.1562 11.25 9.625 11.25 9C11.25 8.375 11.0312 7.84375 10.5938 7.40625C10.1562 6.96875 9.625 6.75 9 6.75C8.375 6.75 7.84375 6.96875 7.40625 7.40625C6.96875 7.84375 6.75 8.375 6.75 9C6.75 9.625 6.96875 10.1562 7.40625 10.5938C7.84375 11.0312 8.375 11.25 9 11.25Z"
            fill="#8A8A8A" />
    </g>
</svg>
