<svg width="14" height="14" viewBox="0 0 14 14" fill="none" xmlns="http://www.w3.org/2000/svg">
    <path
        d="M7.00002 3.20833L6.68502 3.51166C6.72583 3.554 6.77476 3.58768 6.82888 3.61068C6.88301 3.63369 6.94121 3.64555 7.00002 3.64555C7.05883 3.64555 7.11703 3.63369 7.17116 3.61068C7.22528 3.58768 7.27421 3.554 7.31502 3.51166L7.00002 3.20833ZM5.49852 10.6878C4.61419 9.99074 3.6476 9.30999 2.88052 8.44666C2.12919 7.59966 1.60419 6.61208 1.60419 5.32991H0.729187C0.729187 6.88508 1.37669 8.07158 2.2266 9.02766C3.06077 9.96683 4.12477 10.7193 4.9566 11.375L5.49852 10.6878ZM1.60419 5.32991C1.60419 4.07574 2.31294 3.02341 3.28069 2.58066C4.22102 2.15074 5.48452 2.26449 6.68502 3.51166L7.31502 2.90558C5.89169 1.42566 4.23735 1.18124 2.91669 1.78499C1.62519 2.37591 0.729187 3.74791 0.729187 5.32991H1.60419ZM4.9566 11.375C5.25585 11.6107 5.57669 11.8615 5.9016 12.0517C6.22652 12.2412 6.59752 12.3958 7.00002 12.3958V11.5208C6.81919 11.5208 6.60685 11.4508 6.34319 11.2962C6.07894 11.1422 5.80535 10.9299 5.49852 10.6878L4.9566 11.375ZM9.04344 11.375C9.87527 10.7187 10.9393 9.96741 11.7734 9.02766C12.6234 8.07099 13.2709 6.88508 13.2709 5.32991H12.3959C12.3959 6.61208 11.8709 7.59966 11.1195 8.44666C10.3524 9.30999 9.38585 9.99074 8.50152 10.6878L9.04344 11.375ZM13.2709 5.32991C13.2709 3.74791 12.3754 2.37591 11.0834 1.78499C9.76269 1.18124 8.10952 1.42566 6.68502 2.90499L7.31502 3.51166C8.51552 2.26508 9.77902 2.15074 10.7194 2.58066C11.6871 3.02341 12.3959 4.07516 12.3959 5.32991H13.2709ZM8.50152 10.6878C8.19469 10.9299 7.9211 11.1422 7.65685 11.2962C7.39319 11.4502 7.18085 11.5208 7.00002 11.5208V12.3958C7.40252 12.3958 7.77352 12.2412 8.09844 12.0517C8.42394 11.8615 8.74419 11.6107 9.04344 11.375L8.50152 10.6878Z"
        fill="#FAFAFA" />
</svg>
